<svg width="1100" height="769" viewBox="0 0 1100 769" fill="none" xmlns="http://www.w3.org/2000/svg">
<path d="M479.189 45.1817C457.222 60.6772 438.154 79.3559 422.504 100.569H422.934C442.305 100.569 461.55 101.893 480.53 104.467C500.527 107.183 520.256 111.31 539.558 116.797C563.74 101.57 592.147 92.9372 621.838 92.9372C707.053 92.9372 776.384 162.213 776.384 247.374V293.842H822.891C924.403 293.842 1006.99 376.342 1006.99 477.769C1006.99 579.195 924.403 661.695 822.891 661.695C809.418 661.695 796.122 660.231 783.185 657.393C797.956 628.711 805.792 596.732 805.792 563.543H712.777C712.777 593.599 701.064 621.854 679.793 643.108C658.526 664.36 630.245 676.065 600.166 676.065C570.085 676.065 541.807 664.36 520.535 643.106C499.266 621.854 487.553 593.599 487.553 563.543H394.539C394.539 593.397 400.882 622.274 412.906 648.652C384.175 666.202 350.964 675.691 316.898 675.691C247.977 675.691 185.366 637.71 153.5 576.57L71 619.496C118.945 711.486 213.168 768.628 316.898 768.628C371.554 768.628 424.79 752.443 469.93 722.565C506.58 752.643 552.113 769 600.166 769C642.154 769 682.209 756.498 716.104 733.282C749.698 747.315 785.853 754.632 822.891 754.632C975.684 754.632 1100 630.438 1100 477.769C1100 339.616 998.204 224.783 865.625 204.194C845.125 88.3082 743.616 0 621.838 0C570.414 0 521.079 15.6205 479.189 45.1817Z" fill="url(#paint0_linear_5_105)"/>
<path d="M276.406 170.138C229.694 189.472 187.881 217.39 152.132 253.113C116.383 288.837 88.4447 330.619 69.0943 377.296C61.7983 394.899 55.8622 412.876 51.2931 431.148H0V524H197.101V431.148H147.924C161.997 389.28 185.67 350.912 217.836 318.768C272.635 264.009 345.495 233.853 422.995 233.853C500.493 233.853 573.352 264.009 628.151 318.768C660.317 350.912 683.988 389.281 698.064 431.148H648.901V524H846V431.148H794.694C790.123 412.876 784.187 394.899 776.89 377.296C757.543 330.621 729.604 288.839 693.854 253.113C658.103 217.388 616.291 189.472 569.583 170.138C522.872 150.803 473.553 141 422.995 141C372.434 141 323.116 150.803 276.406 170.138Z" fill="url(#paint1_linear_5_105)"/>
<defs>
<linearGradient id="paint0_linear_5_105" x1="71.0009" y1="384.501" x2="1100" y2="384.501" gradientUnits="userSpaceOnUse">
<stop stop-color="#22E561"/>
<stop offset="1" stop-color="#05766A"/>
</linearGradient>
<linearGradient id="paint1_linear_5_105" x1="-0.000643286" y1="332.5" x2="846" y2="332.5" gradientUnits="userSpaceOnUse">
<stop stop-color="#22E561"/>
<stop offset="1" stop-color="#05766A"/>
</linearGradient>
</defs>
</svg>
